<svg width="65" height="24" viewBox="0 0 65 24" fill="none" xmlns="http://www.w3.org/2000/svg">
<g id="FacebookPay">
<path id="Vector" fill-rule="evenodd" clip-rule="evenodd" d="M11.5712 0H11.6397V1.7406H11.5712C7.15579 1.7406 3.41957 4.64824 2.17677 8.6552L0.515137 8.12745C1.98301 3.41747 6.37684 0 11.5712 0Z" fill="url(#paint0_linear_729_1843)"/>
<path id="Vector_2" fill-rule="evenodd" clip-rule="evenodd" d="M11.6393 1.7406V0H11.5708C16.7808 0 21.1883 3.44137 22.6405 8.17525L20.9808 8.70499C19.7596 4.69405 16.0429 1.77047 11.6393 1.7406Z" fill="url(#paint1_linear_729_1843)"/>
<path id="Vector_3" fill-rule="evenodd" clip-rule="evenodd" d="M17.35 19.5291L18.3736 20.9391C16.3883 22.3801 14.0091 23.1518 11.5705 23.1457C9.1696 23.152 6.82526 22.4044 4.85742 21.0048L5.88298 19.5948C7.48785 20.7359 9.45089 21.4071 11.5705 21.4071C13.7312 21.4071 15.7275 20.71 17.35 19.5291Z" fill="url(#paint2_linear_729_1843)"/>
<path id="Vector_4" fill-rule="evenodd" clip-rule="evenodd" d="M0.516691 8.12744L2.17637 8.6552C1.88372 9.59907 1.73521 10.5831 1.736 11.5728C1.736 14.8847 3.37219 17.8143 5.88323 19.5947L4.85964 21.0047C2.01588 18.9793 0.129173 15.7012 0 11.9791V11.1685C0.0371861 10.113 0.215288 9.09334 0.516691 8.12744Z" fill="url(#paint3_linear_729_1843)"/>
<path id="Vector_5" fill-rule="evenodd" clip-rule="evenodd" d="M23.1472 11.5728C23.1472 15.4245 21.2683 18.834 18.3717 20.939L17.3481 19.531C18.5998 18.6306 19.6213 17.4382 20.3272 16.0536C21.033 14.6691 21.4027 13.1326 21.4053 11.5728C21.4053 10.5731 21.2566 9.6072 20.9787 8.69906L22.6384 8.16931C22.9711 9.24474 23.1472 10.3879 23.1472 11.5748V11.5728Z" fill="url(#paint4_linear_729_1843)"/>
<path id="Vector_6" fill-rule="evenodd" clip-rule="evenodd" d="M16.9923 13.2918C16.9923 12.689 16.5715 12.4189 15.638 12.4189H13.3383V14.1608H15.638C16.5872 14.1608 16.9923 13.9005 16.9923 13.2918ZM15.315 9.63971H13.3383V11.3816H15.315C16.2095 11.3816 16.6146 11.1115 16.6146 10.5146C16.6146 9.91567 16.2036 9.63971 15.315 9.63971ZM18.1999 13.4014C18.1999 14.5639 17.2722 15.2255 15.636 15.2255H12.256C12.1973 15.2255 12.1581 15.1863 12.1581 15.1295V8.67091C12.1581 8.61415 12.1973 8.57697 12.256 8.57697H15.3385C16.9297 8.57697 17.8046 9.18956 17.8046 10.2954C17.8046 10.951 17.511 11.4775 16.6635 11.73C17.7361 11.9531 18.1706 12.5852 18.1999 13.4014ZM10.7529 8.67091V9.57316C10.7529 9.63188 10.7138 9.66906 10.655 9.66906H6.74071V11.3542H9.98961C10.0483 11.3542 10.0855 11.3933 10.0855 11.4501V12.3504C10.0855 12.4091 10.0464 12.4482 9.98765 12.4482H6.74267V15.1295C6.74267 15.1883 6.70353 15.2255 6.64481 15.2255H5.66036C5.60164 15.2255 5.5625 15.1863 5.5625 15.1295V8.67091C5.5625 8.61415 5.60164 8.57697 5.66036 8.57697H10.657C10.7157 8.57697 10.7549 8.61611 10.7549 8.67091H10.7529Z" fill="#64717D"/>
<path id="Vector_7" fill-rule="evenodd" clip-rule="evenodd" d="M56.2378 7.67906C57.1979 10.6363 58.3004 13.5455 59.5415 16.3963L62.5751 7.67906H65L60.6531 18.9406C60.0973 20.383 59.4377 21.4947 58.6744 22.2775C57.9112 23.0604 56.8876 23.4518 55.6056 23.4518C55.2866 23.4518 54.9852 23.4264 54.7053 23.3755V21.4086C54.9402 21.4457 55.1496 21.4634 55.3257 21.4634C56.1047 21.4634 56.7388 21.2481 57.2281 20.8136C57.7174 20.3811 58.148 19.745 58.5179 18.9073C57.5997 17.0945 56.7433 15.2511 55.9501 13.3803C55.1498 11.4949 54.3864 9.59415 53.6602 7.67906H56.2378ZM47.2348 7.4168C48.597 7.4168 49.693 7.80236 50.5229 8.57348C51.3547 9.34656 51.7696 10.5013 51.7696 12.0377V18.6H49.6363V16.819C49.2057 17.461 48.6518 17.9542 47.9785 18.3006C47.264 18.6555 46.4746 18.8334 45.6769 18.8192C44.5046 18.8192 43.5945 18.5217 42.9467 17.9287C42.2989 17.3357 41.974 16.5528 41.974 15.586C41.974 14.625 42.34 13.8187 43.07 13.1709C43.8 12.525 44.9645 12.1981 46.5655 12.1981H49.5893V12.1668C49.5893 10.331 48.7301 9.41311 47.0117 9.41311C46.2915 9.41311 45.6867 9.54032 45.1915 9.79671C44.7003 10.0511 44.301 10.4073 43.9977 10.8673L42.475 9.65384C42.9486 8.9336 43.573 8.37972 44.348 7.99416C45.1713 7.59702 46.0763 7.39859 46.9902 7.41484H47.2329L47.2348 7.4168ZM34.6033 3.31067C36.5526 3.31067 38.0088 3.76669 38.9717 4.68068C39.9346 5.59468 40.418 6.83356 40.418 8.39929C40.418 9.95915 39.9346 11.198 38.9717 12.114C38.0088 13.0319 36.5526 13.4899 34.6033 13.4899H30.4228V18.602H28.0859V3.31067H34.6013H34.6033ZM49.5893 13.9165H46.6535C45.7807 13.9165 45.1563 14.0535 44.7805 14.3275C44.6024 14.451 44.4579 14.617 44.3601 14.8104C44.2624 15.0039 44.2145 15.2186 44.2208 15.4353C44.2208 16.3943 44.8667 16.8758 46.1662 16.8758C47.0254 16.8758 47.7398 16.6859 48.3113 16.3023C48.8828 15.9207 49.3094 15.402 49.5893 14.7464V13.9165ZM34.3821 5.44985H30.4228V11.3487H34.3802C35.6484 11.3487 36.5722 11.1041 37.1554 10.6109C37.7367 10.1216 38.0264 9.38375 38.0264 8.39929C38.0264 7.4168 37.7367 6.67895 37.1554 6.1877C36.5722 5.69645 35.6484 5.44985 34.3802 5.44985H34.3821Z" fill="#1B2529"/>
</g>
<defs>
<linearGradient id="paint0_linear_729_1843" x1="11.6397" y1="2.25242" x2="2.73084" y2="8.71214" gradientUnits="userSpaceOnUse">
<stop stop-color="#24D365"/>
<stop offset="1" stop-color="#139DBD"/>
</linearGradient>
<linearGradient id="paint1_linear_729_1843" x1="11.5708" y1="2.19467" x2="20.5058" y2="8.69166" gradientUnits="userSpaceOnUse">
<stop stop-color="#23D068"/>
<stop offset="0.52" stop-color="#EACD36"/>
<stop offset="1" stop-color="#FF6C5C"/>
</linearGradient>
<linearGradient id="paint2_linear_729_1843" x1="5.36824" y1="20.3217" x2="17.8452" y2="20.3217" gradientUnits="userSpaceOnUse">
<stop stop-color="#266FF3"/>
<stop offset="1" stop-color="#C439D6"/>
</linearGradient>
<linearGradient id="paint3_linear_729_1843" x1="3.43874" y1="20.3574" x2="-0.304889" y2="9.43548" gradientUnits="userSpaceOnUse">
<stop stop-color="#266FF3"/>
<stop offset="1" stop-color="#149FBA"/>
</linearGradient>
<linearGradient id="paint4_linear_729_1843" x1="20.5912" y1="8.44613" x2="16.8396" y2="19.322" gradientUnits="userSpaceOnUse">
<stop stop-color="#FF6C5C"/>
<stop offset="1" stop-color="#C439D6"/>
</linearGradient>
</defs>
</svg>
