<svg width="53" height="33" viewBox="0 0 53 33" fill="none" xmlns="http://www.w3.org/2000/svg">
<g id="Mastercard">
<path id="Left" fill-rule="evenodd" clip-rule="evenodd" d="M26.1219 28.2276C23.3552 30.6152 19.7662 32.0566 15.8444 32.0566C7.09377 32.0566 0 24.8805 0 16.0283C0 7.17612 7.09377 0 15.8444 0C19.7662 0 23.3552 1.44138 26.1219 3.82904C28.8887 1.44138 32.4777 0 36.3995 0C45.1501 0 52.2439 7.17612 52.2439 16.0283C52.2439 24.8805 45.1501 32.0566 36.3995 32.0566C32.4777 32.0566 28.8887 30.6152 26.1219 28.2276Z" fill="#ED0006"/>
<path id="Right" fill-rule="evenodd" clip-rule="evenodd" d="M26.1221 28.2276C29.5288 25.2877 31.6889 20.9132 31.6889 16.0283C31.6889 11.1434 29.5288 6.76893 26.1221 3.82904C28.8888 1.44138 32.4778 0 36.3996 0C45.1502 0 52.244 7.17612 52.244 16.0283C52.244 24.8805 45.1502 32.0566 36.3996 32.0566C32.4778 32.0566 28.8888 30.6152 26.1221 28.2276Z" fill="#F9A000"/>
<path id="Middle" fill-rule="evenodd" clip-rule="evenodd" d="M26.122 28.2275C29.5287 25.2876 31.6889 20.9131 31.6889 16.0283C31.6889 11.1434 29.5287 6.76887 26.122 3.82898C22.7153 6.76887 20.5552 11.1434 20.5552 16.0283C20.5552 20.9131 22.7153 25.2876 26.122 28.2275Z" fill="#FF5E00"/>
</g>
</svg>
