<svg width="58" height="48" viewBox="0 0 58 48" fill="none" xmlns="http://www.w3.org/2000/svg">
<g id="PayPal">
<path id="Vector" fill-rule="evenodd" clip-rule="evenodd" d="M7.45229 33.2416H3.03432C2.73199 33.2416 2.47487 33.4543 2.42772 33.7432L0.640865 44.7132C0.60535 44.9298 0.778473 45.1249 1.00523 45.1249H3.11441C3.41674 45.1249 3.67386 44.9121 3.72101 44.6226L4.20294 41.6639C4.24943 41.3741 4.50719 41.1616 4.80889 41.1616H6.20746C9.11774 41.1616 10.7972 39.7979 11.2361 37.0957C11.4337 35.9134 11.2445 34.9845 10.6726 34.3338C10.0448 33.6196 8.9309 33.2416 7.45229 33.2416ZM7.962 37.2482C7.72045 38.7833 6.50916 38.7833 5.33797 38.7833H4.67128L5.13899 35.9163C5.16676 35.7432 5.32179 35.6156 5.50269 35.6156H5.80825C6.60605 35.6156 7.35872 35.6156 7.74766 36.0559C7.97934 36.3187 8.05049 36.7089 7.962 37.2482ZM20.6587 37.199H18.543C18.3628 37.199 18.207 37.3267 18.1792 37.5001L18.0856 38.0729L17.9377 37.8654C17.4797 37.2216 16.4585 37.0065 15.439 37.0065C13.101 37.0065 11.1043 38.7211 10.7153 41.1263C10.5132 42.3259 10.8005 43.4731 11.5034 44.2732C12.1482 45.0088 13.0708 45.3153 14.1682 45.3153C16.0519 45.3153 17.0967 44.1424 17.0967 44.1424L17.0022 44.7118C16.9667 44.9295 17.1398 45.1246 17.3652 45.1246H19.271C19.5741 45.1246 19.8297 44.9118 19.8776 44.6223L21.021 37.6106C21.0572 37.395 20.8847 37.199 20.6587 37.199ZM17.7096 41.1862C17.5054 42.3566 16.5461 43.1422 15.3227 43.1422C14.7084 43.1422 14.2172 42.9515 13.9021 42.5899C13.5894 42.231 13.4705 41.7198 13.57 41.1506C13.7607 39.9901 14.7362 39.179 15.941 39.179C16.5416 39.179 17.0301 39.3721 17.3517 39.7368C17.674 40.1053 17.8019 40.6195 17.7096 41.1862ZM29.8003 37.1987H31.9264C32.2242 37.1987 32.3979 37.5221 32.2287 37.7586L25.1576 47.6419C25.0431 47.8019 24.8545 47.8972 24.653 47.8972H22.5295C22.2306 47.8972 22.056 47.5712 22.2291 47.3341L24.4309 44.3247L22.0892 37.6703C22.0082 37.439 22.1845 37.1987 22.4387 37.1987H24.5277C24.7992 37.1987 25.0386 37.3712 25.1169 37.6228L26.3597 41.6419L29.2921 37.4595C29.4069 37.2963 29.5976 37.1987 29.8003 37.1987Z" fill="#253B80"/>
<path id="Vector_2" fill-rule="evenodd" clip-rule="evenodd" d="M52.8511 44.7131L54.6642 33.5425C54.692 33.3691 54.8472 33.2414 55.0274 33.2408H57.0687C57.2941 33.2408 57.4672 33.4365 57.4316 33.6531L55.6436 44.6225C55.5969 44.9119 55.3398 45.1247 55.037 45.1247H53.214C52.9886 45.1247 52.8155 44.9296 52.8511 44.7131ZM38.9652 33.2414H34.5464C34.2447 33.2414 33.9876 33.4542 33.9404 33.7431L32.1536 44.7131C32.118 44.9296 32.2911 45.1247 32.5168 45.1247H34.784C34.9948 45.1247 35.1751 44.9759 35.2079 44.7733L35.715 41.6637C35.7616 41.374 36.0193 41.1615 36.3209 41.1615H37.7188C40.6297 41.1615 42.3089 39.7978 42.7481 37.0955C42.9463 35.9133 42.7558 34.9844 42.1842 34.3336C41.5567 33.6195 40.4438 33.2414 38.9652 33.2414ZM39.4749 37.2481C39.2339 38.7832 38.0226 38.7832 36.8507 38.7832H36.1846L36.6531 35.9162C36.6809 35.7431 36.8345 35.6154 37.016 35.6154H37.3215C38.1188 35.6154 38.8722 35.6154 39.2608 36.0557C39.4928 36.3186 39.5633 36.7088 39.4749 37.2481ZM52.1704 37.1989H50.0562C49.8744 37.1989 49.7202 37.3265 49.693 37.4999L49.5994 38.0728L49.4508 37.8652C48.9928 37.2214 47.9722 37.0064 46.9528 37.0064C44.6147 37.0064 42.6186 38.7209 42.2297 41.1262C42.0282 42.3258 42.3143 43.473 43.0171 44.2731C43.6631 45.0086 44.5845 45.3152 45.682 45.3152C47.5656 45.3152 48.6102 44.1422 48.6102 44.1422L48.516 44.7116C48.4804 44.9293 48.6535 45.1244 48.8804 45.1244H50.7853C51.087 45.1244 51.3441 44.9117 51.3913 44.6222L52.5354 37.6105C52.5704 37.3948 52.3973 37.1989 52.1704 37.1989ZM49.2215 41.1861C49.0185 42.3564 48.058 43.1421 46.8344 43.1421C46.2213 43.1421 45.7292 42.9513 45.4138 42.5898C45.1011 42.2308 44.9836 41.7196 45.082 41.1505C45.2736 39.99 46.2479 39.1789 47.4526 39.1789C48.0535 39.1789 48.5417 39.3719 48.8637 39.7367C49.1871 40.1052 49.3151 40.6193 49.2215 41.1861Z" fill="#179BD7"/>
<path id="Vector_3" d="M23.8023 29.3172L24.3455 25.9766L23.1356 25.9494H17.3584L21.3733 1.29874C21.3856 1.22431 21.4262 1.15493 21.4854 1.10566C21.5446 1.05639 21.6205 1.02924 21.6995 1.02924H31.4407C34.6748 1.02924 36.9064 1.68088 38.0717 2.96705C38.6179 3.57043 38.9659 4.20094 39.1342 4.89481C39.3106 5.6229 39.3139 6.49275 39.1414 7.55368L39.1288 7.63112V8.31089L39.6753 8.61059C40.1354 8.84689 40.5007 9.1174 40.7811 9.42714C41.2487 9.94302 41.5509 10.5987 41.6786 11.376C41.8104 12.1755 41.7668 13.1268 41.5509 14.2038C41.3016 15.4427 40.8986 16.5218 40.3545 17.4047C39.8538 18.2182 39.2161 18.8929 38.4592 19.416C37.7363 19.9127 36.8774 20.2899 35.9064 20.5313C34.9654 20.7684 33.8927 20.8882 32.7161 20.8882H31.9579C31.4159 20.8882 30.8892 21.0773 30.476 21.4162C30.0617 21.7622 29.7872 22.2346 29.7032 22.7516L29.6461 23.0523L28.6865 28.94L28.6429 29.1562C28.6315 29.2248 28.6118 29.259 28.5828 29.2822C28.5568 29.303 28.5194 29.3172 28.4829 29.3172H23.8023Z" fill="#253B80"/>
<path id="Vector_4" d="M40.1924 7.7099C40.1634 7.8899 40.1302 8.07392 40.0928 8.26297C38.8079 14.6497 34.4131 16.856 28.7997 16.856H25.9417C25.2553 16.856 24.6768 17.3387 24.5698 17.9943L23.1065 26.9806L22.6921 29.5277C22.6225 29.9582 22.9654 30.3464 23.4138 30.3464H28.4831C29.0834 30.3464 29.5931 29.924 29.6875 29.3508L29.7375 29.1013L30.692 23.2365L30.7533 22.9149C30.8466 22.3397 31.3575 21.9174 31.9578 21.9174H32.7159C37.6271 21.9174 41.4719 19.9866 42.5956 14.3993C43.065 12.0652 42.8219 10.1163 41.5798 8.74567C41.204 8.33236 40.7376 7.98945 40.1924 7.7099Z" fill="#179BD7"/>
<path id="Vector_5" d="M38.8486 7.1913C38.6525 7.13598 38.4498 7.0857 38.242 7.04045C38.0333 6.99622 37.8193 6.957 37.5993 6.92281C36.8286 6.80213 35.9843 6.74481 35.0797 6.74481H27.4445C27.2565 6.74481 27.078 6.78603 26.9181 6.86046C26.5659 7.02436 26.3043 7.34718 26.241 7.74238L24.6165 17.704L24.5698 17.9946C24.6768 17.339 25.2553 16.8563 25.9417 16.8563H28.7997C34.413 16.8563 38.8082 14.649 40.0928 8.26329C40.1311 8.07423 40.1634 7.89021 40.1923 7.71021C39.8674 7.54327 39.5152 7.40048 39.1362 7.27878C39.0429 7.24862 38.9463 7.21947 38.8486 7.1913Z" fill="#222D65"/>
<path id="Vector_6" d="M26.2406 7.74224C26.304 7.34702 26.5659 7.02423 26.9177 6.86131C27.0789 6.78689 27.2565 6.74566 27.4442 6.74566H35.0797C35.9843 6.74566 36.8285 6.80298 37.5989 6.92366C37.8193 6.95785 38.0333 6.99707 38.242 7.04131C38.4497 7.08658 38.6521 7.13686 38.8485 7.19215C38.946 7.22032 39.0426 7.24947 39.137 7.27865C39.5161 7.40031 39.8683 7.54413 40.1932 7.71005C40.5756 5.34987 40.1902 3.7429 38.8725 2.28776C37.4196 0.685827 34.7972 0 31.4418 0H21.7002C21.0147 0 20.4302 0.482673 20.3241 1.13935L16.2668 26.0434C16.1866 26.5361 16.5792 26.9808 17.0922 26.9808H23.1064L24.6164 17.7039L26.2406 7.74224Z" fill="#253B80"/>
</g>
</svg>
