<svg width="40" height="41" viewBox="0 0 40 41" fill="none" xmlns="http://www.w3.org/2000/svg">
<path id="Qiwi" fill-rule="evenodd" clip-rule="evenodd" d="M0 18.2383C0 28.2306 8.14903 36.3796 18.2383 36.3796C19.4766 36.3796 20.715 36.2712 22.1379 36.1466C23.7246 36.0077 25.5409 35.8487 27.8425 35.7975C31.3349 35.7975 35.1184 37.0587 39.29 40.7451C39.678 41.1332 40.2601 40.6481 39.872 40.1631C35.7005 35.0214 31.917 34.0513 28.1335 33.1782C23.477 32.1111 21.0517 29.5887 19.4024 26.6784C19.1114 26.0963 18.9174 26.1933 18.9174 26.9694C18.8204 28.1335 18.9174 29.2007 19.1114 30.2678H18.5293C11.9325 30.2678 6.49982 24.8351 6.49982 18.2383C6.49982 11.6415 11.9325 6.20878 18.5293 6.20878C25.1262 6.20878 30.5589 11.6415 30.5589 18.2383C30.5589 18.6263 30.5589 19.1114 30.4618 19.5965C29.4917 19.4024 27.8425 19.4024 26.5814 19.4995C26.0963 19.4995 26.0963 19.6935 26.4843 19.7905C30.3648 20.5666 33.0812 22.9919 33.7603 27.4545C33.7603 27.6485 33.8573 27.6485 33.9543 27.5515C35.5065 24.8351 36.4766 21.6337 36.4766 18.2383C36.4766 8.14903 28.3276 0 18.2383 0C8.14903 0 0 8.24604 0 18.2383ZM31.4319 25.7083C32.111 25.9993 32.402 26.9694 32.402 27.4545C32.499 28.2306 32.305 28.6186 32.014 28.6186C31.7229 28.6186 31.3349 28.3276 30.9468 27.6485C30.5588 26.9694 30.3648 26.2903 30.5588 25.9023C30.8498 25.7083 31.1409 25.6112 31.4319 25.7083ZM27.4544 28.7157C27.8424 28.7157 28.3275 28.9097 28.8126 29.2977C29.5886 29.9768 29.8797 30.7529 29.4916 31.335C29.2976 31.626 28.8125 31.82 28.4245 31.82C27.9394 31.82 27.4544 31.626 27.1633 31.335C26.3872 30.6559 26.1932 29.6858 26.6783 29.1037C26.7753 28.9097 27.0663 28.7157 27.4544 28.7157Z" fill="#F28A1A"/>
</svg>
