<svg width="37" height="35" viewBox="0 0 37 35" fill="none" xmlns="http://www.w3.org/2000/svg">
<path id="Yandex" d="M37 14.2512C36.8063 13.0822 35.7409 12.3029 34.288 12.3029C33.8037 12.3029 33.4162 12.3029 32.932 12.3029C32.0602 12.2055 31.8665 12.4978 31.8665 13.1797C31.8665 16.5891 31.8665 19.9011 31.8665 23.3105C31.8665 25.0639 30.1231 26.9148 28.089 27.3044C21.6963 28.7656 15.3037 30.1294 8.91098 31.5906C8.23297 31.7854 7.45811 31.7854 6.68324 31.7854C6.39267 31.7854 5.90838 31.5906 5.81152 31.2983C5.71466 31.1035 6.00523 30.7139 6.19895 30.519C6.48953 30.3242 6.87697 30.1294 7.2644 29.9346C8.42671 29.5449 9.68585 29.1553 10.8482 28.7656C15.5942 27.207 20.3403 25.6484 25.0864 23.9924C27.2173 23.3105 28.3796 21.8494 28.3796 19.9985C28.4764 14.1538 28.3796 8.21163 28.3796 2.3669C28.3796 1.39277 27.8953 0.61348 26.8298 0.223831C25.5707 -0.26323 24.4084 0.126413 23.3429 0.613474C16.5628 3.82808 9.87957 7.04269 3.09946 10.2573C1.16229 11.2314 0 12.5952 0 14.5434C0 20.0959 0 25.6484 0 31.2009C0 31.4932 -2.36471e-05 31.7854 0.096835 31.9802C0.774846 33.8311 2.51833 35 4.84293 35C9.58901 35 14.3351 35 19.0811 35C23.8272 35 28.4764 35 33.2225 35C34.288 35 35.1597 34.8052 35.9346 34.1233C36.9031 33.344 36.9031 32.2725 36.9031 31.2983C36.9031 26.5059 37 14.2512 37 14.2512ZM17.2408 12.4978C17.7251 11.2314 18.7906 10.4521 20.3403 10.2573C21.4058 10.1599 22.2775 10.7444 22.4712 11.7185C22.6649 13.1797 20.9215 14.9331 19.0811 14.9331C17.6283 14.9331 16.7565 13.8616 17.2408 12.4978Z" fill="#FD6727"/>
</svg>
